# xmcd
#
# Track frame offsets:
#	150
#	11964
#	25761
#	34617
#	55416
#	71933
#	84149
#	97280
#	110376
#	127870
#
# Disc length: 1914 seconds
#
# Revision: 11
# Processed by: cddbd v1.5.1PL2 Copyright (c) Steve Scherf et al.
# Submitted via: EasyCDDAExtractor 9.0.0.1
#
DISCID=8007780a
DTITLE=Elvis Presley - The Original Elvis Presley Collection 50 - Moody Blue
DYEAR=1977
DGENRE=
TTITLE0=Unchained Melody
TTITLE1=If You Love Me (Let Me Know)
TTITLE2=Little Darlin'
TTITLE3=He'll Have To Go
TTITLE4=Let Me Be There
TTITLE5=Way Down
TTITLE6=Pledging My Love
TTITLE7=Moody Blue
TTITLE8=She Thinks I Still Care
TTITLE9=It's Easy For You
EXTD=YEAR: 1977
EXTT0=
EXTT1=
EXTT2=
EXTT3=
EXTT4=
EXTT5=
EXTT6=
EXTT7=
EXTT8=
EXTT9=
PLAYORDER=
